# xmcd
#
# Track frame offsets:
#	150
#	12599
#	39170
#	66960
#	100765
#	132125
#	150754
#	177177
#	215097
#	245757
#	271660
#	303384
#	325972
#
# Disc length: 4638 seconds
#
# Revision: 0
# Processed by: cddbd v1.5.2PL0 Copyright (c) Steve Scherf et al.
# Submitted via: audiograbber 1.83.01
#
DISCID=aa121c0d
DTITLE=Various Artist - Robs Records
DYEAR=2010
DGENRE=Rock
TTITLE0=Sub Sub - Ain't No Love (Ain't No Use)
TTITLE1=Beat Club - Security (Sumner Remix)
TTITLE2=A Certain Ratio - 27 Forever
TTITLE3=Spacer IV - Sirocco
TTITLE4=Strangebrew - Sky Life
TTITLE5=Roy Davis Jnr and Jay Junel - Egyptian Jazz
TTITLE6=J-Walk - Buggin' Becky (Balihu Remix)
TTITLE7=Mr Scruff - Chicken In A Box
TTITLE8=Anambi - Our Love Climbs Higher (Extended Mix)
TTITLE9=Rack-it! - Tarantella Ritual
TTITLE10=Digital Justice - Theme From It's All Gone Pear Shaped
TTITLE11=A Certain Ratio - Listen To The Sound
TTITLE12=Sub Sub - Inside Of This
EXTD=
EXTT0=
EXTT1=
EXTT2=
EXTT3=
EXTT4=
EXTT5=
EXTT6=
EXTT7=
EXTT8=
EXTT9=
EXTT10=
EXTT11=
EXTT12=
PLAYORDER=
